<svg width="592" xmlns="http://www.w3.org/2000/svg" height="592" id="screenshot-334957ad-a2f7-802d-8007-5caf3fd5ea63" viewBox="0 0 592 592" xmlns:xlink="http://www.w3.org/1999/xlink" fill="none" version="1.1"><g id="shape-334957ad-a2f7-802d-8007-5caf3fd5ea63"><defs><clipPath id="frame-clip-334957ad-a2f7-802d-8007-5caf3fd5ea63-render-1" class="frame-clip frame-clip-def"><rect rx="20" ry="20" x="0" y="0" width="592" height="592" transform="matrix(1.000000, 0.000000, 0.000000, 1.000000, 0.000000, 0.000000)"/></clipPath></defs><g class="frame-container-wrapper"><g class="frame-container-blur"><g class="frame-container-shadows"><g clip-path="url(#frame-clip-334957ad-a2f7-802d-8007-5caf3fd5ea63-render-1)" fill="none"><g class="fills" id="fills-334957ad-a2f7-802d-8007-5caf3fd5ea63"><rect width="592" height="592" class="frame-background" x="0" transform="matrix(1.000000, 0.000000, 0.000000, 1.000000, 0.000000, 0.000000)" style="fill: rgb(0, 0, 0); fill-opacity: 1;" ry="20" rx="20" y="0"/></g><g class="frame-children"><g id="shape-57a428b5-10ea-8098-8007-5c60c5bd39be"><defs><clipPath id="frame-clip-57a428b5-10ea-8098-8007-5c60c5bd39be-render-2" class="frame-clip frame-clip-def"><rect rx="0" ry="0" x="40" y="40" width="512" height="512" transform="matrix(1.000000, 0.000000, 0.000000, 1.000000, 0.000000, 0.000000)"/></clipPath></defs><g class="frame-container-wrapper"><g class="frame-container-blur"><g class="frame-container-shadows"><g clip-path="url(#frame-clip-57a428b5-10ea-8098-8007-5c60c5bd39be-render-2)" fill="none"><g class="fills" id="fills-57a428b5-10ea-8098-8007-5c60c5bd39be"><rect width="512" height="512" class="frame-background" x="40" transform="matrix(1.000000, 0.000000, 0.000000, 1.000000, 0.000000, 0.000000)" style="fill: rgb(251, 134, 41); fill-opacity: 1;" ry="0" rx="0" y="40"/></g><g class="frame-children"><g id="shape-334957ad-a2f7-802d-8007-5c931f6aefac"><g class="fills" id="fills-334957ad-a2f7-802d-8007-5c931f6aefac"><path d="M313.410400390625,62.3885498046875C313.9833984375,61.84210205078125,313.9833984375,61.84210205078125,314.56787109375,61.2845458984375C316.6396484375,59.3743896484375,318.301025390625,58.14825439453125,321.128662109375,57.5291748046875C324.28466796875,57.6864013671875,325.833251953125,59.04296875,328.016845703125,61.216064453125C328.41357421875,61.60919189453125,328.41357421875,61.60919189453125,328.818359375,62.0106201171875C329.7060546875,62.8914794921875,330.5908203125,63.775146484375,331.4755859375,64.6588134765625C332.11083984375,65.290283203125,332.745849609375,65.9217529296875,333.38134765625,66.552978515625C335.1083984375,68.2696533203125,336.83251953125,69.9888916015625,338.55615234375,71.709228515625C339.6328125,72.78363037109375,340.7099609375,73.85772705078125,341.78759765625,74.93170166015625C345.157958984375,78.29144287109375,348.526611328125,81.6524658203125,351.89306640625,85.0162353515625C355.7802734375,88.899658203125,359.671875,92.77783203125,363.568359375,96.6519775390625C366.5791015625,99.6461181640625,369.585693359375,102.6446533203125,372.5888671875,105.64697265625C374.3828125,107.4400634765625,376.178466796875,109.23126220703125,377.97900390625,111.0179443359375C379.6728515625,112.6988525390625,381.36083984375,114.3853759765625,383.044921875,116.0760498046875C383.66357421875,116.695068359375,384.283935546875,117.3125,384.90673828125,117.92742919921875C385.75732421875,118.7684326171875,386.6005859375,119.6162109375,387.442626953125,120.46612548828125C387.916015625,120.9385986328125,388.389892578125,121.41107177734375,388.87744140625,121.89794921875C391.063720703125,124.631591796875,391.38330078125,127.213134765625,391.02294921875,130.56298828125C390.67529296875,132.608642578125,390.04736328125,134.4884033203125,389.310546875,136.42340087890625C389.15625,136.83892822265625,389.001953125,137.25457763671875,388.8427734375,137.6827392578125C387.159912109375,142.1160888671875,385.162109375,146.3790283203125,383.056640625,150.624267578125C382.751953125,151.244140625,382.751953125,151.244140625,382.44091796875,151.87646484375C375.6328125,165.67413330078125,367.77685546875,178.92401123046875,359.8017578125,192.07177734375C359.598388671875,192.4078369140625,359.39501953125,192.74359130859375,359.185546875,193.0897216796875C358.619140625,194.02294921875,358.04833984375,194.95361328125,357.477294921875,195.88409423828125C357.15966796875,196.4022216796875,356.841552734375,196.920654296875,356.513916015625,197.45458984375C355.64794921875,198.74169921875,355.64794921875,198.74169921875,354.1015625,200.28802490234375C354.35693359375,200.54339599609375,354.612548828125,200.79888916015625,354.8759765625,201.06219482421875C355.20263671875,200.75665283203125,355.20263671875,200.75665283203125,355.5361328125,200.4451904296875C359.83154296875,196.64996337890625,364.75537109375,193.7425537109375,369.59228515625,190.7001953125C370.5576171875,190.0908203125,371.5224609375,189.48162841796875,372.48779296875,188.87261962890625C374.8359375,187.39263916015625,377.1875,185.91864013671875,379.541015625,184.4476318359375C380.63623046875,183.762939453125,381.7294921875,183.07647705078125,382.822265625,182.388916015625C389.435302734375,178.2454833984375,396.19873046875,174.48822021484375,403.16064453125,170.96978759765625C403.5107421875,170.79119873046875,403.861083984375,170.6126708984375,404.2216796875,170.42864990234375C411.949462890625,166.50738525390625,420.35498046875,162.530029296875,429.174560546875,164.20361328125C434.0869140625,165.9996337890625,437.516357421875,169.82562255859375,441.12255859375,173.4449462890625C441.736328125,174.05511474609375,442.35009765625,174.6651611328125,442.964599609375,175.2747802734375C444.623779296875,176.923583984375,446.277587890625,178.5772705078125,447.9306640625,180.23199462890625C449.314453125,181.6165771484375,450.700439453125,182.99871826171875,452.086181640625,184.381103515625C455.357421875,187.6439208984375,458.62451171875,190.910400390625,461.88916015625,194.17974853515625C465.25,197.5450439453125,468.617431640625,200.90325927734375,471.98876953125,204.258056640625C474.89013671875,207.14569091796875,477.786865234375,210.03778076171875,480.68017578125,212.933837890625C482.4052734375,214.6600341796875,484.1318359375,216.38470458984375,485.86279296875,218.1048583984375C487.49072265625,219.7232666015625,489.11328125,221.34698486328125,490.7314453125,222.97540283203125C491.32373046875,223.569580078125,491.91796875,224.16168212890625,492.514404296875,224.75164794921875C497.17431640625,229.3651123046875,501.048095703125,233.75982666015625,501.120361328125,240.61334228515625C499.50439453125,262.73809814453125,479.4599609375,286.611083984375,467.50830078125,304.4169921875C467.76123046875,304.25543212890625,468.013916015625,304.09368896484375,468.274658203125,303.92730712890625C523.4140625,268.69403076171875,523.4140625,268.69403076171875,534.57421875,270.4791259765625C539.9375,271.75762939453125,543.56201171875,275.76812744140625,547.30419921875,279.55108642578125C547.921875,280.16668701171875,548.53955078125,280.78167724609375,549.158203125,281.39642333984375C550.825927734375,283.05712890625,552.486328125,284.724853515625,554.145751953125,286.394287109375C555.88818359375,288.14569091796875,557.63671875,289.89111328125,559.384521484375,291.6373291015625C562.31787109375,294.56939697265625,565.24609375,297.50640869140625,568.17138671875,300.4461669921875C571.547607421875,303.83856201171875,574.9306640625,307.22412109375,578.317138671875,310.60601806640625C581.58349609375,313.86810302734375,584.845703125,317.1343994140625,588.10546875,320.40289306640625C589.489013671875,321.7900390625,590.8740234375,323.1759033203125,592.26025390625,324.5604248046875C593.8935546875,326.19232177734375,595.523193359375,327.828369140625,597.14990234375,329.4671630859375C597.745361328125,330.06591796875,598.34228515625,330.663330078125,598.9404296875,331.25933837890625C606.96142578125,339.256103515625,606.96142578125,339.256103515625,607.563720703125,343.964111328125C607.30859375,344.21917724609375,607.053466796875,344.474365234375,606.790771484375,344.73712158203125C607.046142578125,344.99261474609375,607.3017578125,345.248046875,607.56494140625,345.5113525390625C607.4501953125,349.00958251953125,606.507080078125,352.2857666015625,605.177978515625,355.4947509765625C604.9970703125,355.9322509765625,604.81591796875,356.36956787109375,604.62939453125,356.82049560546875C594.8720703125,379.4100341796875,579.1337890625,399.89630126953125,565.449951171875,420.14080810546875C568.78955078125,418.5396728515625,571.9677734375,416.75213623046875,575.12890625,414.82525634765625C576.099365234375,414.23846435546875,577.06982421875,413.65155029296875,578.040771484375,413.06500244140625C578.5419921875,412.76116943359375,579.04345703125,412.45733642578125,579.559814453125,412.1441650390625C588.6728515625,406.62713623046875,597.80517578125,401.19158935546875,607.2109375,396.18487548828125C607.73193359375,395.9066162109375,608.25341796875,395.62799072265625,608.790283203125,395.34136962890625C640.6640625,378.399169921875,640.6640625,378.399169921875,649.4365234375,379.844970703125C652.125732421875,380.77227783203125,653.88671875,382.4578857421875,655.88037109375,384.44580078125C656.26513671875,384.8282470703125,656.26513671875,384.8282470703125,656.658203125,385.2183837890625C657.514892578125,386.0701904296875,658.36865234375,386.92462158203125,659.22265625,387.77923583984375C659.83740234375,388.3917236328125,660.45263671875,389.004150390625,661.0673828125,389.61639404296875C662.736083984375,391.2779541015625,664.40185546875,392.94207763671875,666.0673828125,394.60711669921875C667.1083984375,395.6475830078125,668.14990234375,396.68731689453125,669.19189453125,397.72698974609375C672.82763671875,401.35577392578125,676.46142578125,404.986328125,680.09326171875,408.6187744140625C683.4765625,412.00274658203125,686.8642578125,415.38232421875,690.25390625,418.759765625C693.166015625,421.66180419921875,696.0751953125,424.56646728515625,698.98193359375,427.47381591796875C700.717041015625,429.20941162109375,702.45361328125,430.943359375,704.19287109375,432.6746826171875C705.8291015625,434.30328369140625,707.46142578125,435.93560791015625,709.091064453125,437.57086181640625C709.6884765625,438.16937255859375,710.28759765625,438.7666015625,710.88818359375,439.36236572265625C711.7099609375,440.17779541015625,712.52587890625,440.998046875,713.342041015625,441.81964111328125C713.79931640625,442.27667236328125,714.257080078125,442.73394775390625,714.728515625,443.20501708984375C716.552978515625,445.3194580078125,717.88818359375,447.11260986328125,717.85302734375,449.95269775390625C717.26025390625,452.60784912109375,716.065185546875,453.87469482421875,714.1845703125,455.77227783203125C713.92138671875,456.0391845703125,713.657958984375,456.30572509765625,713.386474609375,456.5806884765625C712.50146484375,457.4759521484375,711.61376953125,458.3685302734375,710.72607421875,459.26116943359375C710.09130859375,459.90185546875,709.457275390625,460.5426025390625,708.82275390625,461.183349609375C706.737060546875,463.289794921875,704.64697265625,465.39178466796875,702.55615234375,467.49334716796875C701.836181640625,468.2174072265625,701.1162109375,468.94183349609375,700.396240234375,469.66583251953125C697.39990234375,472.67889404296875,694.40185546875,475.691162109375,691.40185546875,478.700439453125C687.10546875,483.009033203125,682.8154296875,487.3245849609375,678.53515625,491.6492919921875C675.52294921875,494.6912841796875,672.503662109375,497.725830078125,669.478759765625,500.7548828125C667.67333984375,502.563232421875,665.871337890625,504.37451171875,664.076904296875,506.1939697265625C662.38671875,507.9072265625,660.68798828125,509.6109619140625,658.9814453125,511.308349609375C658.35888671875,511.9306640625,657.73974609375,512.55615234375,657.12451171875,513.185302734375C653.626708984375,516.75634765625,650.63525390625,519.329345703125,645.587158203125,520.3797607421875C644.920654296875,520.5556640625,644.254150390625,520.73095703125,643.5673828125,520.9119873046875C642.94970703125,521.0626220703125,642.33203125,521.21337890625,641.695556640625,521.368408203125C595.788330078125,533.405029296875,552.5400390625,568.22900390625,494.63427734375,606.963134765625C412.53466796875,662.26513671875,412.53466796875,662.26513671875,396.8056640625,659.42578125C393.6240234375,658.682861328125,391.89794921875,657.224609375,389.58984375,654.9278564453125C389.1865234375,654.52783203125,389.1865234375,654.52783203125,388.77490234375,654.11962890625C387.8740234375,653.225830078125,386.97607421875,652.3289794921875,386.078125,651.432373046875C385.43310546875,650.79052734375,384.78759765625,650.14892578125,384.14208984375,649.5076904296875C382.388916015625,647.7642822265625,380.63818359375,646.0186767578125,378.887939453125,644.27197265625C377.7939453125,643.1805419921875,376.69970703125,642.0892333984375,375.60546875,640.9984130859375C372.179931640625,637.5836181640625,368.75634765625,634.1671142578125,365.3349609375,630.7486572265625C361.387451171875,626.804931640625,357.43505859375,622.8662109375,353.478271484375,618.9317626953125C350.418701171875,615.888916015625,347.363525390625,612.841552734375,344.311767578125,609.790771484375C342.48974609375,607.9693603515625,340.665771484375,606.1500244140625,338.837158203125,604.3353271484375C337.1162109375,602.627197265625,335.4013671875,600.913818359375,333.6904296875,599.196044921875C333.0625,598.56787109375,332.43310546875,597.941650390625,331.801513671875,597.31787109375C327.232666015625,592.801025390625,324.24658203125,589.320068359375,324.090576171875,582.6546630859375C325.019775390625,563.8323974609375,341.20458984375,543.842529296875,350.8779296875,528.322021484375C352.087646484375,526.3782958984375,353.2919921875,524.4315185546875,354.49560546875,522.484130859375C354.7119140625,522.13427734375,354.92822265625,521.784423828125,355.1513671875,521.423828125C355.64404296875,520.62646484375,356.13720703125,519.828857421875,356.6298828125,519.0313720703125C355.720947265625,519.608154296875,355.720947265625,519.608154296875,354.79345703125,520.1966552734375C298.955810546875,555.588134765625,298.955810546875,555.588134765625,286.19775390625,553.544189453125C281.859619140625,552.368896484375,279.33251953125,550.196044921875,276.0986328125,547.168701171875C275.34228515625,546.461181640625,275.34228515625,546.461181640625,274.5703125,545.7391357421875C267.234619140625,538.83740234375,260.146240234375,531.6767578125,253.032470703125,524.547607421875C251.384765625,522.8963623046875,249.7353515625,521.2471923828125,248.08447265625,519.599609375C242.8583984375,514.384765625,237.651611328125,509.151611328125,232.466796875,503.895751953125C231.27783203125,502.692138671875,230.08642578125,501.4912109375,228.89453125,500.290283203125C226.97119140625,498.3507080078125,225.05908203125,496.40087890625,223.154296875,494.4432373046875C222.44677734375,493.7191162109375,221.736328125,492.998046875,221.022705078125,492.280517578125C216.68896484375,487.91796875,213.620361328125,484.458251953125,212.892578125,478.1220703125C214.43505859375,456.24029541015625,235.265625,432.60302734375,247.478759765625,415.29193115234375C247.350830078125,415.1641845703125,247.22314453125,415.0364990234375,247.091552734375,414.90484619140625C246.5927734375,415.2288818359375,246.09423828125,415.55279541015625,245.58056640625,415.88677978515625C196.49609375,447.73724365234375,196.49609375,447.73724365234375,184.663818359375,445.39898681640625C184.201416015625,445.3143310546875,183.7392578125,445.2298583984375,183.2626953125,445.14276123046875C178.4150390625,443.56866455078125,175.18212890625,439.863037109375,171.68017578125,436.348388671875C171.062744140625,435.73455810546875,170.44482421875,435.12060546875,169.82666015625,434.507080078125C168.155517578125,432.84637451171875,166.489501953125,431.180908203125,164.82470703125,429.513916015625C163.431396484375,428.1197509765625,162.03564453125,426.72796630859375,160.64013671875,425.33587646484375C157.34619140625,422.05059814453125,154.05615234375,418.76104736328125,150.768798828125,415.46893310546875C147.38427734375,412.07965087890625,143.99267578125,408.69757080078125,140.597412109375,405.31884765625C137.67626953125,402.41131591796875,134.759765625,399.4996337890625,131.846923828125,396.583984375C130.10986328125,394.84564208984375,128.37109375,393.10882568359375,126.6279296875,391.37652587890625C124.988037109375,389.746337890625,123.35400390625,388.11077880859375,121.72412109375,386.47076416015625C121.12744140625,385.8720703125,120.52880859375,385.275634765625,119.927978515625,384.68115234375C115.53662109375,380.3333740234375,111.716552734375,376.31036376953125,111.60009765625,369.8681640625C111.86767578125,364.48828125,113.72265625,359.73114013671875,115.91943359375,354.86212158203125C116.104736328125,354.45135498046875,116.2900390625,354.04095458984375,116.480712890625,353.61822509765625C127.1435546875,330.4315185546875,142.408203125,308.98822021484375,156.72412109375,287.947509765625C158.376953125,285.51739501953125,160.021728515625,283.08197021484375,161.66162109375,280.64300537109375C162.026611328125,280.10015869140625,162.026611328125,280.10015869140625,162.398681640625,279.5462646484375C163.159423828125,278.4146728515625,163.919921875,277.28302001953125,164.6806640625,276.151123046875C168.4638671875,270.521240234375,172.260498046875,264.90057373046875,176.07177734375,259.28948974609375C191.084228515625,237.175048828125,205.799560546875,214.87713623046875,219.60986328125,191.98565673828125C220.2265625,190.9644775390625,220.8447265625,189.9442138671875,221.463623046875,188.92437744140625C233.27685546875,169.431640625,244.840087890625,149.2176513671875,251.03369140625,127.146240234375C251.836669921875,124.66204833984375,253.05224609375,123.18328857421875,254.877197265625,121.3304443359375C255.556396484375,120.63824462890625,255.556396484375,120.63824462890625,256.2490234375,119.93218994140625C256.74658203125,119.42901611328125,257.244140625,118.92578125,257.7568359375,118.4072265625C258.2861328125,117.869384765625,258.815185546875,117.331298828125,259.34423828125,116.79302978515625C260.783203125,115.3299560546875,262.224365234375,113.8692626953125,263.666015625,112.4093017578125C264.87548828125,111.1837158203125,266.08349609375,109.95721435546875,267.29248046875,108.7305908203125C270.15283203125,105.8270263671875,273.014892578125,102.925537109375,275.87841796875,100.0252685546875C278.81005859375,97.055908203125,281.73828125,94.08392333984375,284.6650390625,91.1104736328125C287.19140625,88.5439453125,289.7197265625,85.9793701171875,292.249267578125,83.4158935546875C293.753662109375,81.8914794921875,295.25732421875,80.3663330078125,296.75927734375,78.8397216796875C302.23291015625,73.2777099609375,307.717041015625,67.727294921875,313.410400390625,62.3885498046875Z" style="fill: rgb(254, 254, 254);"/></g></g></g></g></g></g></g></g></g></g></g></g></g></g></svg>