<?xml version="1.0" encoding="UTF-8"?>
<svg version="1.1" xmlns="http://www.w3.org/2000/svg" width="1920" height="1920">
<path d="M0 0 C1.44799547 0.03418061 1.44799547 0.03418061 2.92524338 0.06905174 C8.0756238 0.27772492 11.81059982 0.83989227 16.26855469 3.69287109 C20.14702066 7.97255769 20.39528552 11.72548812 20.40899658 17.35322571 C20.41345327 18.37365039 20.41345327 18.37365039 20.41799998 19.41468972 C20.42668685 21.69924239 20.42819522 23.98374266 20.4296875 26.26831055 C20.43431568 27.90431836 20.43934035 29.54032509 20.44473267 31.17633057 C20.45785865 35.62476061 20.46430201 40.07317556 20.46874332 44.52162194 C20.47167373 47.30050564 20.47577848 50.07938521 20.4802475 52.85826683 C20.49392296 61.5518143 20.50358937 70.24535234 20.50744939 78.93890983 C20.51193039 88.97607903 20.52948003 99.01311207 20.55844998 109.05023986 C20.58006265 116.80744529 20.59015345 124.5646124 20.59149051 132.32184762 C20.59253883 136.95544078 20.59845252 141.58890595 20.61631012 146.22246742 C20.63278363 150.5817344 20.63494984 154.94077708 20.62617111 159.30006409 C20.62540035 160.8988219 20.62974864 162.49759173 20.63962936 164.0963192 C20.65234204 166.28166814 20.64647645 168.46622186 20.63604736 170.65156555 C20.63751392 171.87365376 20.63898048 173.09574198 20.64049149 174.35486317 C19.9323967 180.70977625 17.0067168 184.45756432 12.20761108 188.31896973 C9.11196375 190.51236344 5.86855444 192.12965998 2.41308594 193.67724609 C1.67580765 194.01471863 0.93852936 194.35219116 0.1789093 194.69989014 C-7.73197458 198.25256081 -15.83012711 201.1783473 -24.04394531 203.94287109 C-25.23991837 204.34957535 -25.23991837 204.34957535 -26.46005249 204.76449585 C-53.11222427 213.79343088 -80.41068594 220.76094764 -107.73144531 227.44287109 C-108.42912018 227.61412506 -109.12679504 227.78537903 -109.84561157 227.96182251 C-111.78529004 228.43537144 -113.72706845 228.90029435 -115.66894531 229.36474609 C-116.75046875 229.62352539 -117.83199219 229.88230469 -118.94628906 230.14892578 C-121.73144531 230.69287109 -121.73144531 230.69287109 -125.73144531 230.69287109 C-125.73144531 231.35287109 -125.73144531 232.01287109 -125.73144531 232.69287109 C-124.91341431 232.7206665 -124.91341431 232.7206665 -124.07885742 232.74902344 C-113.61464508 233.39494989 -103.48542939 235.99998212 -93.29394531 238.31787109 C-91.25781344 238.77759207 -89.22168062 239.23730883 -87.18554688 239.69702148 C-82.23427186 240.81857569 -77.28592226 241.95243602 -72.33892822 243.0927124 C-70.0374071 243.62244853 -67.73500563 244.14807183 -65.43212891 244.671875 C-51.51964023 247.86194164 -37.91187955 251.74498232 -24.35644531 256.19287109 C-23.67247681 256.41457977 -22.9885083 256.63628845 -22.28381348 256.86471558 C-7.21704521 261.78168885 8.79907558 267.50159587 18.04199219 281.05615234 C22.07306382 289.72167258 21.56025038 299.09385947 21.54321289 308.42700195 C21.54756643 310.00814554 21.5527517 311.58928702 21.55870056 313.17042542 C21.57203186 317.44317891 21.57267587 321.71584362 21.57013726 325.98861384 C21.56906369 329.56451737 21.57396068 333.14040321 21.57874268 336.71630293 C21.58981727 345.1563412 21.59028663 353.59633495 21.58422852 362.03637695 C21.57818793 370.72455841 21.59050658 379.41257795 21.61179858 388.10073179 C21.6294466 395.57872512 21.63541096 403.05666705 21.63216084 410.53468043 C21.63035317 414.99280459 21.63293262 419.4508132 21.64687538 423.90891838 C21.65950157 428.10249759 21.65746462 432.29582527 21.64446449 436.48940086 C21.64210967 438.02197609 21.64479385 439.55456928 21.65308762 441.08712387 C21.71320271 453.06574311 21.0395024 463.74689338 12.26855469 472.69287109 C-18.43828252 499.18504437 -75.24220221 504.13063419 -113.73144531 511.69287109 C-113.19529099 511.81069443 -112.65913666 511.92851776 -112.10673523 512.0499115 C4.78343091 537.76379356 4.78343091 537.76379356 16.90941334 554.48590946 C22.19261088 563.06471863 21.69314259 572.92719985 21.64086914 582.64819336 C21.64330126 584.24095904 21.64702465 585.83372318 21.65193176 587.42648315 C21.66128609 591.72602754 21.65196194 596.0253421 21.63859963 600.32486844 C21.62722744 604.83831871 21.63139704 609.35175862 21.63334656 613.86521912 C21.63422763 621.44151534 21.62318764 629.01772177 21.60473633 636.59399414 C21.58356396 645.33728977 21.58006161 654.08045402 21.58629829 662.82377011 C21.59200426 671.25676228 21.58633225 679.68970847 21.57512474 688.12269402 C21.57049586 691.70181064 21.56959745 695.28089898 21.57171059 698.86001778 C21.57360225 703.07819963 21.56542248 707.29624886 21.54965019 711.51440048 C21.54542897 713.05706547 21.54454213 714.59974396 21.54734039 716.14241219 C21.57916266 736.83333579 21.57916266 736.83333579 16.26855469 743.69287109 C15.60855469 743.69287109 14.94855469 743.69287109 14.26855469 743.69287109 C14.26855469 744.35287109 14.26855469 745.01287109 14.26855469 745.69287109 C9.59562967 750.06364055 4.13845779 753.07744669 -1.73144531 755.50537109 C-2.53138916 755.83666016 -3.33133301 756.16794922 -4.15551758 756.50927734 C-45.99407048 773.08543135 -92.84742056 779.21836157 -136.73144531 787.69287109 C-130.34056948 789.93921149 -123.91809798 791.73507248 -117.33691406 793.32958984 C-115.32262729 793.82517427 -113.30838751 794.3209497 -111.29418945 794.81689453 C-110.25263702 795.07208862 -109.21108459 795.32728271 -108.13796997 795.59020996 C-89.21519027 800.23510916 -70.37320265 805.00991969 -51.73144531 810.69287109 C-50.69729492 811.00643555 -49.66314453 811.32 -48.59765625 811.64306641 C14.54197194 830.93084512 14.54197194 830.93084512 24.01855469 844.13037109 C26.29745375 848.80211417 26.39496949 853.25441331 26.40226746 858.39718628 C26.40566579 859.38848925 26.40566579 859.38848925 26.40913278 860.39981854 C26.41544563 862.60673291 26.41464517 864.81358543 26.41381836 867.02050781 C26.41681154 868.60592732 26.42021443 870.19134609 26.42399597 871.77676392 C26.4328238 876.07845745 26.43517357 880.38013108 26.43581176 884.68183279 C26.43652292 887.37061488 26.4386585 890.05939192 26.44130898 892.74817276 C26.45055818 902.13192312 26.45464437 911.51565929 26.45385742 920.89941406 C26.45325666 929.64092985 26.46380934 938.38238392 26.47960109 947.12388408 C26.49268398 954.63401386 26.49804101 962.14412348 26.49740201 969.65426457 C26.49714726 974.13748096 26.49998615 978.62064248 26.51058006 983.1038475 C26.5202737 987.32111625 26.52033155 991.53827782 26.51306343 995.75555038 C26.51201918 997.30067095 26.51437099 998.84579823 26.52042389 1000.39090729 C26.52816956 1002.50559286 26.5234823 1004.61991067 26.51579285 1006.73458862 C26.51633761 1007.91628569 26.51688238 1009.09798275 26.51744366 1010.31548882 C26.14249114 1015.40353267 25.54999431 1019.4442889 21.83105469 1023.06787109 C17.63023787 1025.73180371 14.4458211 1025.82464239 9.55918884 1025.84677124 C8.87356088 1025.85115349 8.18793291 1025.85553575 7.48152834 1025.8600508 C5.17868213 1025.87343014 2.87587417 1025.87961578 0.57299805 1025.88574219 C-1.07622449 1025.89364404 -2.72544531 1025.90191304 -4.37466431 1025.91052246 C-9.79695994 1025.93673991 -15.21926326 1025.95205298 -20.64160156 1025.96630859 C-22.50955142 1025.97166898 -24.37750122 1025.97704649 -26.24545097 1025.98244095 C-34.01839688 1026.00407207 -41.79134072 1026.02280684 -49.56430912 1026.03406334 C-60.69473337 1026.0502888 -71.82480775 1026.08342979 -82.95510012 1026.14046419 C-90.78540073 1026.17921615 -98.61560798 1026.19870243 -106.44600195 1026.2039839 C-111.12007023 1026.20763106 -115.79376535 1026.21958401 -120.46772957 1026.25208664 C-124.86979317 1026.28225876 -129.27125962 1026.28844673 -133.67340469 1026.27670288 C-135.28339939 1026.27648289 -136.89342252 1026.28472626 -138.50332069 1026.30235672 C-147.64613253 1026.39697853 -154.84351254 1025.85642597 -162.73144531 1020.69287109 C-163.82070312 1020.05865234 -164.90996094 1019.42443359 -166.03222656 1018.77099609 C-167.02609375 1018.16771484 -168.01996094 1017.56443359 -169.04394531 1016.94287109 C-243.98951098 973.19058209 -344.9701312 962.30828492 -469.96624756 937.54397583 C-647.68482735 902.92798185 -647.68482735 902.92798185 -664.35644531 878.94287109 C-667.51146225 873.87295949 -667.85761369 869.75969184 -667.87188721 863.81182861 C-667.87634389 862.773863 -667.87634389 862.773863 -667.88089061 861.71492839 C-667.88956072 859.39669129 -667.89108443 857.07850593 -667.89257812 854.76025391 C-667.89720752 853.09778737 -667.90223234 851.4353219 -667.90762329 849.77285767 C-667.92073815 845.2561729 -667.92719054 840.73950299 -667.93163395 836.22280216 C-667.93456632 833.39984246 -667.93867145 830.5768868 -667.94313812 827.75392914 C-667.95681102 818.91835399 -667.96647854 810.08278811 -667.97034001 801.24720311 C-667.97481956 791.05385344 -667.99236352 780.86063795 -668.02134061 770.66732907 C-668.04297062 762.78438329 -668.05304501 754.90147523 -668.05438113 747.01850009 C-668.05542827 742.31220004 -668.06131657 737.60602615 -668.07920074 732.89975739 C-668.0957041 728.47070611 -668.09782596 724.04187552 -668.08906174 719.61280441 C-668.08829256 717.99069756 -668.09261834 716.36857873 -668.10251999 714.74650192 C-668.16993722 703.01039048 -667.52991889 694.65638996 -659.11035156 685.84521484 C-633.56378394 662.73165366 -586.77421137 657.81720374 -554.18786621 650.26391602 C-550.10940004 649.31579373 -546.03364247 648.35620525 -541.95800781 647.39599609 C-541.22560883 647.22348328 -540.49320984 647.05097046 -539.73861694 646.87322998 C-538.06951673 646.47995947 -536.4004738 646.08644587 -534.73144531 645.69287109 C-536.65331665 645.26373413 -536.65331665 645.26373413 -538.61401367 644.82592773 C-656.61213934 618.4147899 -656.61213934 618.4147899 -670.46972656 599.29443359 C-674.56096545 592.17222054 -675.01913073 586.10132711 -675.28613281 578.01318359 C-675.3492012 576.12214401 -675.3492012 576.12214401 -675.4135437 574.19290161 C-675.9751195 555.80097051 -675.88150432 537.39547852 -675.86181641 518.99707031 C-675.85729073 514.73598837 -675.85722242 510.47494905 -675.86181641 506.21386719 C-675.87620833 492.72700453 -675.84227506 479.24131096 -675.75032043 465.75474548 C-675.73126844 462.66417849 -675.71885904 459.57363587 -675.70739746 456.48303223 C-675.68616284 451.49325433 -675.63769888 446.50439594 -675.56930161 441.51504898 C-675.54751144 439.66615767 -675.53384479 437.81714935 -675.52905655 435.96813583 C-675.49184401 424.73446975 -674.9857483 416.30179907 -667.73144531 407.17724609 C-637.43440806 380.9040341 -579.9184958 377.27833477 -541.73144531 370.69287109 C-541.73144531 370.36287109 -541.73144531 370.03287109 -541.73144531 369.69287109 C-542.79540527 369.46736572 -543.85936523 369.24186035 -544.95556641 369.00952148 C-649.63884934 346.74778628 -649.63884934 346.74778628 -661.91894531 328.44287109 C-662.4075 327.73646484 -662.89605469 327.03005859 -663.39941406 326.30224609 C-667.63402825 318.00687284 -667.02250296 309.04395905 -667.00610352 299.98046875 C-667.01045581 298.38962058 -667.01564068 296.79877451 -667.02159119 295.20793152 C-667.03493711 290.90412827 -667.03556476 286.60041308 -667.03302789 282.29659319 C-667.03195514 278.6958866 -667.03684933 275.0951976 -667.04163331 271.4944948 C-667.05271335 262.99550257 -667.05317443 254.49655454 -667.04711914 245.99755859 C-667.04108055 237.24748236 -667.0533909 228.49756698 -667.07468921 219.74751818 C-667.09233727 212.21859009 -667.0983015 204.68971305 -667.09505147 197.16076505 C-667.09324351 192.67132717 -667.09582593 188.18200403 -667.10976601 183.69258499 C-667.12239194 179.46865094 -667.12035546 175.24496661 -667.10735512 171.02103615 C-667.10500009 169.47717388 -667.10768522 167.93329377 -667.11597824 166.38945198 C-667.17221387 155.10029159 -666.90983751 144.9690443 -658.72753906 136.49755859 C-651.42310448 129.89354924 -642.87047062 126.14471254 -633.73144531 122.69287109 C-632.96106934 122.40186523 -632.19069336 122.11085938 -631.39697266 121.81103516 C-587.61502187 105.63354015 -540.13634218 97.65231223 -494.4050293 88.96536255 C-489.12403759 87.96166231 -483.84672587 86.94020019 -478.57128906 85.90771484 C-477.3969783 85.67791931 -477.3969783 85.67791931 -476.19894409 85.44348145 C-473.75140606 84.96430739 -471.30392007 84.48486825 -468.85644531 84.00537109 C-456.68105315 81.62010567 -444.50060908 79.2635552 -432.31347656 76.93896484 C-384.29266799 67.76496181 -336.41885466 57.97030804 -288.94805908 46.23986816 C-286.82951516 45.71707194 -284.71007061 45.19810368 -282.59033203 44.68017578 C-242.09912016 34.7597759 -200.99737557 23.58545587 -164.43847656 3.07568359 C-160.18669496 0.90377784 -156.70224746 0.5638267 -151.94512939 0.52792358 C-150.17144989 0.51107262 -150.17144989 0.51107262 -148.36193848 0.49388123 C-147.06751831 0.48655472 -145.77309814 0.47922821 -144.43945312 0.47167969 C-143.05909907 0.46045752 -141.67874829 0.44882499 -140.29840088 0.43681335 C-136.54510415 0.40547976 -132.79178947 0.3803431 -129.03843784 0.3566165 C-125.88908741 0.33613533 -122.73976275 0.31260722 -119.59043384 0.28907931 C-112.13518524 0.23342159 -104.67991418 0.1827402 -97.22460938 0.13525391 C-89.5927986 0.08656955 -81.96107328 0.03022684 -74.3293469 -0.03016722 C-67.74213659 -0.08204625 -61.15490365 -0.12924965 -54.56763339 -0.17285478 C-50.65003753 -0.19881437 -46.73247082 -0.22631693 -42.81491852 -0.2582283 C-28.541488 -0.37242655 -14.26882193 -0.45801329 0 0 Z " fill="#FEFEFE" transform="translate(1378.7314453125,440.30712890625)"/>
</svg>
